<svg width="1600" height="420" viewBox="0 0 1600 420" fill="none" xmlns="http://www.w3.org/2000/svg">
  <defs>
    <radialGradient id="bgGlow" cx="70%" cy="50%" r="65%">
      <stop offset="0%" stop-color="#123c84" stop-opacity="0.55"/>
      <stop offset="35%" stop-color="#081a3a" stop-opacity="0.85"/>
      <stop offset="100%" stop-color="#020711" stop-opacity="1"/>
    </radialGradient>
    <linearGradient id="wingBlue" x1="0" y1="0" x2="1" y2="1">
      <stop offset="0%" stop-color="#8fd7ff"/>
      <stop offset="45%" stop-color="#376bff"/>
      <stop offset="100%" stop-color="#070a26"/>
    </linearGradient>
    <linearGradient id="wingGold" x1="0" y1="0" x2="1" y2="1">
      <stop offset="0%" stop-color="#fff4b7"/>
      <stop offset="55%" stop-color="#ffb24a"/>
      <stop offset="100%" stop-color="#1d0b08"/>
    </linearGradient>
    <filter id="glow" x="-50%" y="-50%" width="200%" height="200%">
      <feGaussianBlur stdDeviation="5" result="blur"/>
      <feMerge>
        <feMergeNode in="blur"/>
        <feMergeNode in="SourceGraphic"/>
      </feMerge>
    </filter>
    <filter id="softGlow" x="-50%" y="-50%" width="200%" height="200%">
      <feGaussianBlur stdDeviation="14" result="blur"/>
      <feMerge>
        <feMergeNode in="blur"/>
        <feMergeNode in="SourceGraphic"/>
      </feMerge>
    </filter>
  </defs>

  <rect width="1600" height="420" rx="28" fill="url(#bgGlow)"/>
  <rect x="1" y="1" width="1598" height="418" rx="28" stroke="#1f6feb" stroke-opacity="0.22"/>

  <g opacity="0.35">
    <path d="M0 326 C170 250, 296 395, 482 288 S806 148, 1000 255 S1298 370, 1600 210" stroke="#1597ff" stroke-width="2"/>
    <path d="M0 365 C220 310, 395 435, 620 322 S970 180, 1205 278 S1420 356, 1600 292" stroke="#6ee7ff" stroke-width="1.4"/>
    <path d="M430 346 C610 238, 735 314, 910 256 S1190 120, 1600 152" stroke="#7c3aed" stroke-width="1.3"/>
  </g>

  <g opacity="0.5">
    <circle cx="105" cy="112" r="2" fill="#58a6ff"/>
    <circle cx="205" cy="160" r="2" fill="#58a6ff"/>
    <circle cx="290" cy="96" r="2" fill="#ffcf70"/>
    <circle cx="390" cy="190" r="2" fill="#58a6ff"/>
    <circle cx="505" cy="120" r="2" fill="#7dd3fc"/>
    <circle cx="1280" cy="80" r="2" fill="#ffcf70"/>
    <circle cx="1390" cy="132" r="2" fill="#58a6ff"/>
    <circle cx="1498" cy="78" r="2" fill="#ffcf70"/>
    <path d="M105 112 L205 160 L290 96 L390 190 L505 120" stroke="#58a6ff" stroke-opacity="0.45"/>
    <path d="M1280 80 L1390 132 L1498 78" stroke="#ffcf70" stroke-opacity="0.35"/>
  </g>

  <g transform="translate(1000 205)" filter="url(#softGlow)">
    <path d="M0 0 C-90 -125 -240 -142 -308 -58 C-360 8 -270 92 -132 78 C-252 144 -205 255 -82 184 C-32 155 -8 75 0 0Z" fill="url(#wingBlue)" fill-opacity="0.72" stroke="#8fd7ff" stroke-width="2"/>
    <path d="M0 0 C90 -125 240 -142 308 -58 C360 8 270 92 132 78 C252 144 205 255 82 184 C32 155 8 75 0 0Z" fill="url(#wingBlue)" fill-opacity="0.72" stroke="#8fd7ff" stroke-width="2"/>
    <path d="M-18 3 C-10 -36 10 -36 18 3 C26 72 20 128 0 154 C-20 128 -26 72 -18 3Z" fill="#061228" stroke="#6ee7ff" stroke-width="2"/>
    <circle cx="0" cy="-23" r="14" fill="#8fd7ff"/>
    <path d="M-8 -34 C-46 -98 -70 -100 -92 -70" stroke="#8fd7ff" stroke-width="2"/>
    <path d="M8 -34 C46 -98 70 -100 92 -70" stroke="#8fd7ff" stroke-width="2"/>

    <g stroke="#dbeafe" stroke-opacity="0.55" stroke-width="1">
      <path d="M-250 -48 L-180 20 L-82 -52 L-40 58 L-132 78 L-205 150"/>
      <path d="M-308 -58 L-230 -102 L-110 -90 L-82 -52 L0 0"/>
      <path d="M250 -48 L180 20 L82 -52 L40 58 L132 78 L205 150"/>
      <path d="M308 -58 L230 -102 L110 -90 L82 -52 L0 0"/>
      <path d="M-180 20 L-40 58 L-82 184"/>
      <path d="M180 20 L40 58 L82 184"/>
    </g>

    <g filter="url(#glow)">
      <circle cx="-250" cy="-48" r="4" fill="#ffcf70"/>
      <circle cx="-180" cy="20" r="4" fill="#58a6ff"/>
      <circle cx="-82" cy="-52" r="4" fill="#a78bfa"/>
      <circle cx="-40" cy="58" r="4" fill="#58a6ff"/>
      <circle cx="-132" cy="78" r="4" fill="#ffcf70"/>
      <circle cx="-205" cy="150" r="4" fill="#ffcf70"/>
      <circle cx="250" cy="-48" r="4" fill="#ffcf70"/>
      <circle cx="180" cy="20" r="4" fill="#58a6ff"/>
      <circle cx="82" cy="-52" r="4" fill="#a78bfa"/>
      <circle cx="40" cy="58" r="4" fill="#58a6ff"/>
      <circle cx="132" cy="78" r="4" fill="#ffcf70"/>
      <circle cx="205" cy="150" r="4" fill="#ffcf70"/>
    </g>
  </g>

  <g opacity="0.9">
    <text x="80" y="145" fill="#f8fafc" font-family="Segoe UI, Inter, Arial, sans-serif" font-size="54" font-weight="800" letter-spacing="0.5">Ronith Rashmikara</text>
    <text x="82" y="190" fill="#7dd3fc" font-family="Segoe UI, Inter, Arial, sans-serif" font-size="26" font-weight="700" letter-spacing="1.2">AI Engineer · Full-Stack Builder · Researcher</text>
    <text x="84" y="235" fill="#cbd5e1" font-family="Segoe UI, Inter, Arial, sans-serif" font-size="22">Building intelligent systems from silence into signal.</text>
    <text x="84" y="278" fill="#94a3b8" font-family="Segoe UI, Inter, Arial, sans-serif" font-size="18">Multi-agent systems · RAG · document intelligence · production-grade web applications</text>
  </g>
</svg>
